<svg xmlns="http://www.w3.org/2000/svg" width="1000" height="1000" viewBox="0 0 1000 1000"><title>  Instagram</title><description>  Created with Sketch (http://www.bohemiancoding.com/sketch)</description><g fill="#D8D8D8"><path d="M500 0C223.9 0 0 223.9 0 500 0 776.1 223.9 1000 500 1000 776.1 1000 1000 776.1 1000 500 1000 223.9 776.1 0 500 0L500 0ZM262.8 160L741.6 160C797.3 160 842.2 200.1 842.2 249.8L842.2 750.2C842.2 799.9 797.3 840 741.6 840L262.8 840C207 840 162.2 799.9 162.2 750.2L162.2 249.8C162.2 200.1 207 160 262.8 160L262.8 160ZM677.5 230.4C664.9 230.4 654.8 240.5 654.8 253L654.8 325.3C654.8 337.9 664.9 347.9 677.5 347.9L749.8 347.9C762.3 347.9 772.4 337.9 772.4 325.3L772.4 253C772.4 240.5 762.3 230.4 749.8 230.4L677.5 230.4 677.5 230.4ZM616.3 358.5C616.8 358.9 617.3 359.2 617.8 359.6L617.8 358.5 616.3 358.5 616.3 358.5ZM500 372C417.2 372 350 439.2 350 522 350 604.8 417.2 672 500 672 582.8 672 650 604.8 650 522 650 439.2 582.8 372 500 372L500 372ZM200 428.3L200 740C200 773.2 226.8 800 260 800L740 800C773.2 800 800 773.2 800 740L800 434.7 680.4 434.7C693 460.8 700 490 700 520.9 700 631.1 610.7 720.5 500.5 720.5 390.3 720.5 300.9 631.1 300.9 520.9 300.9 487.5 309.2 456 323.7 428.3L200 428.3 200 428.3ZM200 428.3" fill="#009BCD"/></g></svg>