<svg xmlns="http://www.w3.org/2000/svg" width="256" height="209" viewBox="0 0 256 209" preserveAspectRatio="xMidYMid"><path d="M256 25.5C246.6 29.6 236.5 32.5 225.8 33.7 236.7 27.2 245 16.9 248.9 4.7 238.8 10.7 227.5 15.1 215.6 17.4 206 7.2 192.3 0.8 177.2 0.8 148.2 0.8 124.7 24.3 124.7 53.3 124.7 57.5 125.2 61.5 126.1 65.3 82.4 63.1 43.7 42.2 17.8 10.4 13.3 18.2 10.7 27.2 10.7 36.8 10.7 55.1 20 71.1 34.1 80.6 25.5 80.3 17.4 77.9 10.3 74 10.3 74.2 10.3 74.4 10.3 74.6 10.3 100.1 28.4 121.3 52.4 126.1 48 127.3 43.4 128 38.6 128 35.2 128 31.9 127.7 28.7 127 35.4 147.9 54.8 163.1 77.8 163.5 59.8 177.6 37.1 186 12.5 186 8.3 186 4.1 185.8 0 185.3 23.2 200.2 50.9 208.9 80.5 208.9 177.1 208.9 229.9 128.8 229.9 59.4 229.9 57.2 229.9 54.9 229.8 52.6 240.1 45.2 249 36 256 25.5" fill="#55acee"/></svg>